<svg xmlns="http://www.w3.org/2000/svg" version="1.1" xmlns:xlink="http://www.w3.org/1999/xlink" xmlns:svgjs="http://svgjs.dev/svgjs" width="1440" height="560" preserveAspectRatio="none" viewBox="0 0 1440 560"><g mask="url(&quot;#SvgjsMask1000&quot;)" fill="none"><rect width="1440" height="560" x="0" y="0" fill="#0e2a47"></rect><path d="M 0,230 C 57.6,210.4 172.8,127.6 288,132 C 403.2,136.4 460.8,274.4 576,252 C 691.2,229.6 748.8,26.6 864,20 C 979.2,13.4 1036.8,218.6 1152,219 C 1267.2,219.4 1382.4,61.4 1440,22L1440 560L0 560z" fill="#184a7e"></path><path d="M 0,303 C 96,344 288,486.4 480,508 C 672,529.6 768,411.4 960,411 C 1152,410.6 1344,487 1440,506L1440 560L0 560z" fill="#2264ab"></path></g><defs><mask id="SvgjsMask1000"><rect width="1440" height="560" fill="#ffffff"></rect></mask></defs></svg>